# xmcd
#
# Track frame offsets:
#	225
#	25093
#	41550
#	60537
#	76193
#	96115
#	119144
#	133571
#	155732
#	173621
#	197413
#	213302
#
# Disc length: 3088 seconds
#
# Revision: 1
# Processed by: cddbd v1.5.2PL0 Copyright (c) Steve Scherf et al.
# Submitted via: audiograbber 1.83.01
#
DISCID=9b0c0d0c
DTITLE=лаваияитсас кауяемтгс [2012] CD1  - ои аццекои фоум айолг стг лесоцеио 1
DYEAR=1900
DGENRE=
TTITLE0=о тауяос
TTITLE1=йаталесис тоу ваоус [акениоу лаваияитсас]
TTITLE2=сто йаже тоу валемоу вяомоу [амтало йаи лаваияитсас]
TTITLE3=лиа стицлг лиа фыг [
TTITLE4=паяоко поу [йяистож and лаваияитсас]
TTITLE5=лийяг
TTITLE6=вафопийяо [йаяотоме and лаваияитсас]
TTITLE7=г йуяиа омеияеутаи
TTITLE8=маутийос аятистас лпеямая кабикие and лаваияитсас]
TTITLE9=стг лаяиа йаккас [ам йатяим фике and лаваияитсас]
TTITLE10=лиа амаса [мийос акиацас]
TTITLE11=лиа сумгхислемг леяа [л. жаяамтоуяг and лаваияитсас]
EXTD=
EXTT0=
EXTT1=
EXTT2=
EXTT3=
EXTT4=
EXTT5=
EXTT6=
EXTT7=
EXTT8=
EXTT9=
EXTT10=
EXTT11=
PLAYORDER=
